<?xml version="1.0" encoding="UTF-8"?>
<svg version="1.1" xmlns="http://www.w3.org/2000/svg" width="512" height="512">
<path d="M0 0 C2.90890717 0.00536159 5.81765999 0.00002292 8.7265625 -0.00634766 C23.50812375 -0.0143032 37.66618442 0.48470988 52.1640625 3.69287109 C53.36716064 3.95753174 54.57025879 4.22219238 55.80981445 4.49487305 C103.3409208 15.27182326 145.84940333 37.25940245 180.9140625 71.13037109 C181.53490723 71.72930176 182.15575195 72.32823242 182.79541016 72.9453125 C190.69545051 80.60805503 198.24849146 88.34665629 204.9140625 97.13037109 C205.3467041 97.69723633 205.7793457 98.26410156 206.22509766 98.84814453 C212.65054472 107.303035 218.57430724 115.94096639 223.9140625 125.13037109 C224.29385254 125.77248535 224.67364258 126.41459961 225.06494141 127.07617188 C239.32533976 151.28381548 248.92954957 177.16820943 254.7890625 204.63037109 C254.98024658 205.52361084 255.17143066 206.41685059 255.3684082 207.3371582 C258.57214043 223.41689819 259.29073564 239.46216009 259.2265625 255.81787109 C259.22382828 257.26895767 259.22382828 257.26895767 259.22103882 258.74935913 C259.17561076 273.08228086 258.66672322 287.02811026 255.9140625 301.13037109 C255.75309082 302.02739746 255.59211914 302.92442383 255.42626953 303.84863281 C246.04691683 355.68284617 220.16334049 401.99397022 183.2265625 439.13037109 C182.37199463 439.99049805 181.51742676 440.850625 180.63696289 441.73681641 C165.23421571 456.96683078 147.61086879 469.31196394 128.9140625 480.13037109 C128.23682129 480.52466309 127.55958008 480.91895508 126.86181641 481.32519531 C100.94282441 496.23322481 71.45054612 505.79188928 41.9140625 510.13037109 C40.70943359 510.30769775 39.50480469 510.48502441 38.26367188 510.66772461 C26.60638896 512.2666961 15.04220152 512.48877639 3.2890625 512.44287109 C1.83422958 512.44013687 1.83422958 512.44013687 0.3500061 512.43734741 C-14.00149805 512.39195419 -27.96536668 511.88660579 -42.0859375 509.13037109 C-42.98296387 508.96939941 -43.87999023 508.80842773 -44.80419922 508.64257812 C-88.78797575 500.68375466 -130.61454651 480.76370925 -164.0859375 451.13037109 C-164.88773437 450.43943359 -165.68953125 449.74849609 -166.515625 449.03662109 C-178.22794395 438.78341258 -189.87196441 427.71061827 -199.0859375 415.13037109 C-199.9272372 414.02793142 -200.76978251 412.92644165 -201.61328125 411.82568359 C-225.46235587 380.38576258 -241.44598309 344.39197072 -249.3984375 305.75537109 C-249.61947144 304.68959839 -249.61947144 304.68959839 -249.8449707 303.60229492 C-252.83137767 287.95996058 -253.46074704 272.32361016 -253.3984375 256.44287109 C-253.39661469 255.47548004 -253.39479187 254.50808899 -253.39291382 253.51138306 C-253.34748576 239.17846132 -252.83859822 225.23263193 -250.0859375 211.13037109 C-249.84447998 209.78483154 -249.84447998 209.78483154 -249.59814453 208.41210938 C-238.74660277 148.4419655 -204.718622 91.26011524 -156.0859375 54.13037109 C-155.20421875 53.43169922 -154.3225 52.73302734 -153.4140625 52.01318359 C-121.32375889 27.10330703 -83.98539944 11.75944996 -44.4609375 3.25537109 C-43.52628662 3.05194092 -42.59163574 2.84851074 -41.62866211 2.63891602 C-27.87202089 -0.15898324 -13.97450401 -0.03060454 0 0 Z " fill="#3BB1A8" transform="translate(253.0859375,-0.13037109375)"/>
<path d="M0 0 C12.96915955 -0.13891253 25.93814265 -0.24557707 38.90789413 -0.31087303 C44.93007398 -0.34220925 50.95174554 -0.3847253 56.97363281 -0.45263672 C62.78323625 -0.51774542 68.59235028 -0.55368878 74.40229034 -0.56926346 C76.6207678 -0.58036491 78.83921794 -0.6020434 81.05748749 -0.63438034 C84.16098778 -0.67782962 87.26245631 -0.68393877 90.36621094 -0.68115234 C91.28690369 -0.702724 92.20759644 -0.72429565 93.15618896 -0.746521 C95.58333544 -0.72288333 97.66000579 -0.64549038 100 0 C102.96821203 3.35416959 104.42244833 6.83718229 106.09375 10.9609375 C107.65337519 14.47009419 109.58164002 17.78151843 111.4375 21.140625 C112.96047062 23.92766123 114.43507138 26.73173124 115.875 29.5625 C116.28492188 30.36816406 116.69484375 31.17382812 117.1171875 32.00390625 C118 34 118 34 118 36 C118.66 36 119.32 36 120 36 C120.36609375 36.68320313 120.7321875 37.36640625 121.109375 38.0703125 C125.56179272 46.36029025 130.06107227 54.62419047 134.57495117 62.88085938 C137.96025398 69.07735868 141.30659269 75.29190368 144.59765625 81.5390625 C145.91585417 83.85233461 147.39231827 85.88390609 149 88 C149.28875 88.7425 149.5775 89.485 149.875 90.25 C151.14705067 93.3594572 152.82352699 95.95500282 154.68359375 98.7421875 C156.07793206 101.13366389 157.11282356 103.60155397 158.17651367 106.15332031 C159.53783363 109.20609948 161.24224461 112.06230832 162.9375 114.9375 C171 128.84014423 171 128.84014423 171 132 C171.66 132 172.32 132 173 132 C175.62796599 136.62969327 178.1634373 141.2781097 180.5 146.0625 C182.39991641 149.92226709 184.50295182 153.53374849 186.88671875 157.11328125 C188 159 188 159 188.98046875 161.4609375 C189.98648857 163.96635084 191.17864768 166.03792917 192.625 168.3125 C195.4478004 172.93099274 197.9475763 177.66623714 200.375 182.5 C200.73287598 183.20680908 201.09075195 183.91361816 201.45947266 184.6418457 C204 189.75200931 204 189.75200931 204 192 C204.66 192 205.32 192 206 192 C207.29673602 194.53919006 208.58747837 197.08114238 209.875 199.625 C210.23980469 200.33785156 210.60460937 201.05070313 210.98046875 201.78515625 C213.00000927 205.78751837 214.7081111 209.68917073 216 214 C216.66 214 217.32 214 218 214 C219.23446149 217.35068119 219.28859558 219.3682859 217.80078125 222.625 C216.29628939 225.18955755 214.8302361 227.65544439 213 230 C212.34 230 211.68 230 211 230 C210.89945313 230.53882813 210.79890625 231.07765625 210.6953125 231.6328125 C209.80966682 234.64798824 208.40264711 237.12797537 206.875 239.875 C203.06251839 246.8290296 199.50814735 253.88773773 196 261 C195.34 261 194.68 261 194 261 C193.90589844 261.69609375 193.81179688 262.3921875 193.71484375 263.109375 C192.85254438 266.59626864 191.38583389 269.1536342 189.5625 272.25 C189.03885864 273.1476709 189.03885864 273.1476709 188.50463867 274.06347656 C187.3446894 276.04731265 186.17376923 278.02431164 185 280 C183.26915029 282.91567333 181.53945562 285.83201817 179.8125 288.75 C179.17477661 289.82640747 179.17477661 289.82640747 178.52416992 290.92456055 C175.4379984 296.16809106 172.5749934 301.48409308 170 307 C168.2265625 306.48828125 168.2265625 306.48828125 166 305 C164.62689485 302.38994148 163.47017353 299.90847318 162.375 297.1875 C162.0759375 296.47529297 161.776875 295.76308594 161.46875 295.02929688 C159.93845356 291.36945074 158.46326026 287.68712611 157 284 C156.34 284 155.68 284 155 284 C154.16180842 282.37750059 153.3295884 280.75191503 152.5 279.125 C152.0359375 278.22007812 151.571875 277.31515625 151.09375 276.3828125 C150 274 150 274 150 272 C149.34 272 148.68 272 148 272 C147.23816406 270.45892578 147.23816406 270.45892578 146.4609375 268.88671875 C145.76573715 267.48692346 145.07041816 266.08718709 144.375 264.6875 C144.04371094 264.01654297 143.71242187 263.34558594 143.37109375 262.65429688 C138.45882101 252.78340919 133.01025961 243.20716219 127.5625 233.625 C123.43741018 226.3500327 119.3565996 219.06198927 115.43359375 211.67578125 C113.6339746 208.31681907 111.75204076 205.00755617 109.84765625 201.70703125 C109 200 109 200 109 198 C108.34 198 107.68 198 107 198 C105.23537317 194.91190305 105 193.76687864 105 190 C104.34 190 103.68 190 103 190 C102.32845067 188.71086513 101.66291141 187.41859796 101 186.125 C100.62875 185.40570313 100.2575 184.68640625 99.875 183.9453125 C99 182 99 182 99 180 C98.34 180 97.68 180 97 180 C96.89042969 179.43410156 96.78085938 178.86820313 96.66796875 178.28515625 C96.50941406 177.55167969 96.35085937 176.81820312 96.1875 176.0625 C96.03667969 175.33160156 95.88585937 174.60070312 95.73046875 173.84765625 C95.48941406 173.23792969 95.24835938 172.62820313 95 172 C94.01 171.67 93.02 171.34 92 171 C91.27746843 169.4173118 90.57006706 167.82624573 89.93359375 166.20703125 C85.90608912 156.6859429 80.04958504 147.74512926 74.73828125 138.8984375 C72.64502317 135.36557813 71.15391195 131.94253249 70 128 C69.34 128 68.68 128 68 128 C67.01 124.04 67.01 124.04 66 120 C65.34 120 64.68 120 64 120 C63.50371094 118.98421875 63.00742188 117.9684375 62.49609375 116.921875 C58.78489656 109.38080326 54.94620308 102.00179345 50.640625 94.77734375 C48.55309014 91.24344545 46.60686354 87.64196017 44.65625 84.03125 C43.05568923 81.1019218 41.42257245 78.19361714 39.77856445 75.28857422 C36.27532976 69.09767271 32.81227256 62.88699332 29.4375 56.625 C29.09090332 55.98852539 28.74430664 55.35205078 28.38720703 54.69628906 C26 50.23479103 26 50.23479103 26 48 C24.515 47.505 24.515 47.505 23 47 C21.74145508 44.99047852 21.74145508 44.99047852 20.51953125 42.37890625 C20.07802734 41.44369141 19.63652344 40.50847656 19.18164062 39.54492188 C18.72982422 38.56072266 18.27800781 37.57652344 17.8125 36.5625 C17.34908203 35.58216797 16.88566406 34.60183594 16.40820312 33.59179688 C13 26.29854335 13 26.29854335 13 24 C12.34 24 11.68 24 11 24 C10.73445313 23.38511719 10.46890625 22.77023438 10.1953125 22.13671875 C9.84210938 21.32847656 9.48890625 20.52023438 9.125 19.6875 C8.77695313 18.88699219 8.42890625 18.08648437 8.0703125 17.26171875 C6.97428106 14.8038166 6.97428106 14.8038166 5 12 C5 11.01 5 10.02 5 9 C4.01 8.67 3.02 8.34 2 8 C0.5522078 5.10441559 0 3.25811062 0 0 Z " fill="#F8FAF9" transform="translate(86,132)"/>
<path d="M0 0 C2.53734049 -0.16498314 5.03192644 -0.16358313 7.57430935 -0.11363125 C8.54035091 -0.11436138 9.50639248 -0.11509151 10.50170803 -0.11584377 C13.7000604 -0.11235574 16.89696285 -0.0734361 20.0950613 -0.03428555 C22.31036998 -0.02496177 24.52568896 -0.01784361 26.74101162 -0.01284695 C32.57578837 0.00625697 38.40994419 0.05538775 44.24447536 0.11067295 C50.19653835 0.16179186 56.14870152 0.1846514 62.10092068 0.20985508 C73.78283433 0.26350259 85.46428684 0.34885698 97.14584255 0.4539957 C96.37027251 3.8865945 95.14569535 6.33482781 93.27084255 9.3289957 C91.03363402 12.96910935 89.02481917 16.61434783 87.14584255 20.4539957 C83.89483886 26.44734264 80.53700969 32.38988745 77.0794363 38.2664957 C75.62211121 40.76169439 74.25031986 43.18094998 73.21615505 45.8836832 C71.78240062 49.32678691 69.72235439 52.1353489 67.58334255 55.1727457 C66.09945651 57.52760833 65.10114078 59.84529671 64.14584255 62.4539957 C63.48584255 62.4539957 62.82584255 62.4539957 62.14584255 62.4539957 C61.48584255 64.7639957 60.82584255 67.0739957 60.14584255 69.4539957 C59.48584255 69.4539957 58.82584255 69.4539957 58.14584255 69.4539957 C57.94088161 70.08048008 57.73592068 70.70696445 57.5247488 71.3524332 C57.25533474 72.16969883 56.98592068 72.98696445 56.70834255 73.8289957 C56.44150661 74.64110508 56.17467068 75.45321445 55.8997488 76.2899332 C55.14584255 78.4539957 55.14584255 78.4539957 54.14584255 80.4539957 C53.48584255 80.4539957 52.82584255 80.4539957 52.14584255 80.4539957 C51.77459255 81.4130582 51.77459255 81.4130582 51.39584255 82.3914957 C49.17407777 87.83481942 46.80880344 93.21129146 44.14584255 98.4539957 C43.48584255 98.4539957 42.82584255 98.4539957 42.14584255 98.4539957 C41.91896755 99.2789957 41.69209255 100.1039957 41.45834255 100.9539957 C40.15705297 104.42410126 38.55897843 107.06115924 36.55209255 110.1414957 C34.98517684 112.71820154 33.69792163 115.35909719 32.39584255 118.0789957 C30.10124957 122.77463186 27.52226898 127.10556149 24.64584255 131.4539957 C21.18798532 136.68421114 18.26500756 141.98598811 15.54428005 147.64540195 C13.74821416 151.25258456 11.68914734 154.65647286 9.5794363 158.0868082 C8.19962235 160.3651931 6.91405476 162.67455751 5.64584255 165.0164957 C3.47649564 168.97608036 1.04194496 172.69684472 -1.5221262 176.41102695 C-2.79959866 178.37031756 -3.85295395 180.34245279 -4.85415745 182.4539957 C-5.51415745 182.4539957 -6.17415745 182.4539957 -6.85415745 182.4539957 C-11.49635928 174.19711497 -11.49635928 174.19711497 -13.47915745 170.0789957 C-14.76252092 167.62893816 -15.89424213 166.33224788 -17.85415745 164.4539957 C-20.89437853 160.14701584 -22.32173141 155.44253152 -23.85415745 150.4539957 C-24.51415745 150.4539957 -25.17415745 150.4539957 -25.85415745 150.4539957 C-26.18415745 148.4739957 -26.51415745 146.4939957 -26.85415745 144.4539957 C-27.84415745 144.1239957 -28.83415745 143.7939957 -29.85415745 143.4539957 C-30.85415745 141.58290195 -30.85415745 141.58290195 -31.85415745 139.0164957 C-34.55295908 132.73831667 -38.01109084 127.10540893 -41.61148167 121.31971836 C-45.36172848 115.28858998 -48.91738757 109.17399591 -52.39321995 102.98133945 C-53.62808349 100.5939662 -53.62808349 100.5939662 -54.85415745 99.4539957 C-54.5641642 92.78415095 -51.75769252 87.37892152 -48.85415745 81.4539957 C-48.19415745 81.4539957 -47.53415745 81.4539957 -46.85415745 81.4539957 C-46.64790745 80.4846207 -46.44165745 79.5152457 -46.22915745 78.5164957 C-45.05642194 74.38281099 -42.88159725 71.28154366 -40.44009495 67.78602695 C-36.72450939 62.32246888 -33.74414765 56.38608086 -30.85415745 50.4539957 C-30.19415745 50.4539957 -29.53415745 50.4539957 -28.85415745 50.4539957 C-28.58603245 49.5258707 -28.31790745 48.5977457 -28.04165745 47.6414957 C-26.87110246 44.49947969 -26.12601676 43.69125817 -23.85415745 41.4539957 C-22.45765983 38.80546573 -21.14124881 36.15513642 -19.85415745 33.4539957 C-15.22933723 23.9064374 -10.17880717 14.62685433 -4.85415745 5.4539957 C-4.5315192 4.60263035 -4.20888096 3.75126499 -3.8764658 2.87410069 C-1.85415745 0.4539957 -1.85415745 0.4539957 0 0 Z " fill="#FAFBFA" transform="translate(330.85415744781494,131.54600429534912)"/>
<path d="M0 0 C1.25861776 2.51723553 1.39652991 4.70051692 1.75 7.5 C2.71130489 14.12560909 4.39390379 20.41241622 6.32324219 26.81835938 C7.45595275 30.65501427 8.30541637 33.94921441 8 38 C8.66 38 9.32 38 10 38 C10.10521973 38.72848145 10.21043945 39.45696289 10.31884766 40.20751953 C11.46424442 47.63773096 13.1865173 54.68928677 15.375 61.875 C16.00262108 63.98697414 16.63022535 66.09895328 17.2578125 68.2109375 C18.05779366 70.87496907 18.86002647 73.53827178 19.66699219 76.20019531 C22.0930398 84.21974488 23.88664526 92.15673684 25.2890625 100.40625 C25.91974198 103.99326715 25.91974198 103.99326715 27.109375 107.3203125 C28.04083904 110.12287534 28.04223119 111.29019891 27 114 C23.125 108.375 23.125 108.375 22 105 C21.54625 104.54625 21.0925 104.0925 20.625 103.625 C16.28073857 99.28073857 14.75857028 93.72470751 13 88 C12.34 88 11.68 88 11 88 C10.67 86.02 10.34 84.04 10 82 C8.515 81.505 8.515 81.505 7 81 C6 79.12890625 6 79.12890625 5 76.5625 C2.30119836 70.28432097 -1.15693339 64.65141322 -4.75732422 58.86572266 C-8.50757103 52.83459427 -12.06323012 46.72000021 -15.5390625 40.52734375 C-16.77392604 38.13997049 -16.77392604 38.13997049 -18 37 C-17.71000675 30.33015524 -14.90353507 24.92492581 -12 19 C-11.34 19 -10.68 19 -10 19 C-9.79375 18.030625 -9.5875 17.06125 -9.375 16.0625 C-7.97318933 11.07489826 -4.97458 7.17087849 -2 3 C-1.34 2.01 -0.68 1.02 0 0 Z " fill="#DADEDE" transform="translate(294,194)"/>
<path d="M0 0 C2.53791283 -0.16921698 5.03153716 -0.16737528 7.57476234 -0.11740685 C8.54080391 -0.11813698 9.50684547 -0.11886711 10.50216103 -0.11961937 C13.7005134 -0.11613134 16.89741585 -0.0772117 20.0955143 -0.03806114 C22.31082298 -0.02873737 24.52614195 -0.0216192 26.74146461 -0.01662254 C32.57624136 0.00248137 38.41039719 0.05161215 44.24492836 0.10689735 C50.19699134 0.15801626 56.14915452 0.18087581 62.10137367 0.20607948 C73.78328732 0.25972699 85.46473983 0.34508139 97.14629555 0.45022011 C96.34929119 4.00862962 95.00854011 6.5878672 93.08379555 9.70022011 C92.53594398 10.59225136 91.98809242 11.48428261 91.4236393 12.40334511 C91.00211586 13.07881386 90.58059242 13.75428261 90.14629555 14.45022011 C89.14629555 11.45022011 89.14629555 11.45022011 90.14629555 8.45022011 C90.80629555 8.45022011 91.46629555 8.45022011 92.14629555 8.45022011 C92.14629555 7.46022011 92.14629555 6.47022011 92.14629555 5.45022011 C92.80629555 5.45022011 93.46629555 5.45022011 94.14629555 5.45022011 C94.14629555 4.46022011 94.14629555 3.47022011 94.14629555 2.45022011 C93.32996651 2.61255135 92.51363747 2.77488258 91.67257118 2.94213295 C87.67100714 3.51870254 83.75781873 3.59025613 79.72588539 3.57961464 C78.90238091 3.58136696 78.07887642 3.58311928 77.23041725 3.5849247 C74.52266742 3.58930722 71.81498348 3.58641847 69.10723305 3.58303261 C67.21966985 3.58370655 65.33210674 3.58467734 63.44454384 3.58593178 C59.49550993 3.58740376 55.54649869 3.58526975 51.59746742 3.5805912 C46.53556648 3.57488639 41.47371847 3.57818084 36.41181946 3.58416367 C32.51709023 3.58777607 28.62237357 3.58662769 24.72764397 3.58403587 C22.8609218 3.58336889 20.99419848 3.58418704 19.12747765 3.58651543 C16.52092651 3.58905391 13.91446137 3.58518476 11.30791664 3.57961464 C10.53691124 3.58163887 9.76590584 3.5836631 8.97153664 3.58574867 C5.55955677 3.57223636 2.40696897 3.52678132 -0.85370445 2.45022011 C-0.85370445 3.44022011 -0.85370445 4.43022011 -0.85370445 5.45022011 C-1.51370445 5.45022011 -2.17370445 5.45022011 -2.85370445 5.45022011 C-2.95682945 6.08959511 -3.05995445 6.72897011 -3.16620445 7.38772011 C-3.39307945 8.06834511 -3.61995445 8.74897011 -3.85370445 9.45022011 C-4.84370445 9.78022011 -5.83370445 10.11022011 -6.85370445 10.45022011 C-6.2286905 8.76749025 -5.55193063 7.10391368 -4.85370445 5.45022011 C-4.36615936 4.14326935 -4.36615936 4.14326935 -3.86876488 2.80991554 C-1.85370445 0.45022011 -1.85370445 0.45022011 0 0 Z " fill="#CDEFED" transform="translate(330.85370445251465,131.54977989196777)"/>
<path d="M0 0 C3 1 3 1 3.87890625 2.609375 C5.7007238 8.31426652 6.71121772 13.94749825 7.47265625 19.88671875 C7.92881887 23.06300667 7.92881887 23.06300667 9.08203125 26.24609375 C10.03261695 29.09785085 10.05881947 30.24706938 9 33 C5.125 27.375 5.125 27.375 4 24 C3.319375 23.319375 3.319375 23.319375 2.625 22.625 C-1.71926143 18.28073857 -3.24142972 12.72470751 -5 7 C-3.625 5.5 -3.625 5.5 -2 4 C-1.34 4 -0.68 4 0 4 C0 2.68 0 1.36 0 0 Z " fill="#D2D8D6" transform="translate(312,275)"/>
<path d="M0 0 C12.96915955 -0.13891253 25.93814265 -0.24557707 38.90789413 -0.31087303 C44.93007398 -0.34220925 50.95174554 -0.3847253 56.97363281 -0.45263672 C62.78323625 -0.51774542 68.59235028 -0.55368878 74.40229034 -0.56926346 C76.6207678 -0.58036491 78.83921794 -0.6020434 81.05748749 -0.63438034 C84.16098778 -0.67782962 87.26245631 -0.68393877 90.36621094 -0.68115234 C91.28690369 -0.702724 92.20759644 -0.72429565 93.15618896 -0.746521 C95.58403387 -0.72287653 97.65951051 -0.64627926 100 0 C103.08136503 3.452358 104.46049995 6.41424954 105 11 C104.01 10.67 103.02 10.34 102 10 C101.66666667 8.66666667 101.33333333 7.33333333 101 6 C100.01 5.67 99.02 5.34 98 5 C98 3.68 98 2.36 98 1 C50.975 1.495 50.975 1.495 3 2 C3.33 4.31 3.66 6.62 4 9 C1.18167487 7.59083743 0.97406539 5.92219617 0 3 C0 2.01 0 1.02 0 0 Z M96 8 C97.65 8 99.3 8 101 8 C100.67 8.66 100.34 9.32 100 10 C98.68 10 97.36 10 96 10 C96 9.34 96 8.68 96 8 Z " fill="#C7EAEA" transform="translate(86,132)"/>
<path d="M0 0 C1.65 0 3.3 0 5 0 C5.09796875 0.556875 5.1959375 1.11375 5.296875 1.6875 C6.41251443 7.3811081 8.22238779 11.90771095 11 17 C11.66 16.67 12.32 16.34 13 16 C13.65043719 17.72744016 14.29514844 19.4570369 14.9375 21.1875 C15.29714844 22.15042969 15.65679687 23.11335938 16.02734375 24.10546875 C17 27 17 27 17.50390625 29.80078125 C17.74947266 30.88939453 17.74947266 30.88939453 18 32 C18.66 32.33 19.32 32.66 20 33 C19.67 33.66 19.34 34.32 19 35 C20.32 35.33 21.64 35.66 23 36 C23.33 37.65 23.66 39.3 24 41 C24.66 41 25.32 41 26 41 C26.33 43.31 26.66 45.62 27 48 C26.34 48 25.68 48 25 48 C24.16180842 46.37750059 23.3295884 44.75191503 22.5 43.125 C22.0359375 42.22007812 21.571875 41.31515625 21.09375 40.3828125 C20 38 20 38 20 36 C19.34 36 18.68 36 18 36 C17.49210937 34.97261719 16.98421875 33.94523437 16.4609375 32.88671875 C11.76696874 23.42436466 6.96804617 14.05430605 1.625 4.9375 C0 2 0 2 0 0 Z M14 17 C14.66 17 15.32 17 16 17 C15.67 17.99 15.34 18.98 15 20 C14.67 19.01 14.34 18.02 14 17 Z " fill="#DBF0ED" transform="translate(216,368)"/>
<path d="M0 0 C0.33 0 0.66 0 1 0 C1 2.31 1 4.62 1 7 C-0.98 7.99 -0.98 7.99 -3 9 C-2.87625 10.1446875 -2.87625 10.1446875 -2.75 11.3125 C-2.8325 12.199375 -2.915 13.08625 -3 14 C-4.32781878 15.0073108 -5.66209359 16.00612666 -7 17 C-8.22512803 19.28109612 -9.08236268 21.56826109 -10 24 C-10.66 24 -11.32 24 -12 24 C-12 25.32 -12 26.64 -12 28 C-12.99 28 -13.98 28 -15 28 C-14.87625 29.1446875 -14.87625 29.1446875 -14.75 30.3125 C-15 33 -15 33 -16.8125 34.875 C-17.534375 35.24625 -18.25625 35.6175 -19 36 C-19.99 35.67 -20.98 35.34 -22 35 C-22.33 33.35 -22.66 31.7 -23 30 C-22.34 30.33 -21.68 30.66 -21 31 C-21 31.99 -21 32.98 -21 34 C-20.34 34 -19.68 34 -19 34 C-18.773125 33.34 -18.54625 32.68 -18.3125 32 C-16.92008676 28.81734117 -15.21547029 26.07504978 -13.34765625 23.15625 C-12.0336204 21.05379264 -10.81787373 18.9231561 -9.625 16.75 C-7.53879866 12.95630266 -5.4103902 9.18952462 -3.25 5.4375 C-2.65703125 4.40496094 -2.0640625 3.37242187 -1.453125 2.30859375 C-0.73382813 1.16583984 -0.73382813 1.16583984 0 0 Z " fill="#58B2A9" transform="translate(345,280)"/>
<path d="M0 0 C0.33 0.66 0.66 1.32 1 2 C-0.07091391 4.18759338 -1.19090179 6.22727099 -2.4375 8.3125 C-2.79787354 8.92754395 -3.15824707 9.54258789 -3.52954102 10.17626953 C-4.67621162 12.12374607 -5.83632801 14.06264078 -7 16 C-7.38027344 16.63695801 -7.76054687 17.27391602 -8.15234375 17.93017578 C-12.80916908 25.71102192 -12.80916908 25.71102192 -15 29 C-15.33 29 -15.66 29 -16 29 C-16.35286978 24.76556263 -15.5763408 23.26997101 -13 20 C-12.4740625 18.4221875 -12.4740625 18.4221875 -11.9375 16.8125 C-11.628125 15.884375 -11.31875 14.95625 -11 14 C-10.34 13.67 -9.68 13.34 -9 13 C-8.855625 12.38125 -8.71125 11.7625 -8.5625 11.125 C-7.89502155 8.60341474 -7.0181135 7.6144908 -5 6 C-4.34 6 -3.68 6 -3 6 C-2.87625 5.195625 -2.7525 4.39125 -2.625 3.5625 C-2.41875 2.716875 -2.2125 1.87125 -2 1 C-1.34 0.67 -0.68 0.34 0 0 Z " fill="#CCE9E8" transform="translate(278,396)"/>
<path d="M0 0 C0.33 0.66 0.66 1.32 1 2 C1.66 2 2.32 2 3 2 C2.44271087 5.34373475 1.64826111 8.03312999 0 11 C-0.66 11 -1.32 11 -2 11 C-2 11.66 -2 12.32 -2 13 C-2.66 13 -3.32 13 -4 13 C-4.33 14.32 -4.66 15.64 -5 17 C-5.99 17 -6.98 17 -8 17 C-8 17.99 -8 18.98 -8 20 C-8.66 20 -9.32 20 -10 20 C-8.97957488 17.10879549 -7.85977293 14.79433364 -6.125 12.25 C-3.57227476 8.34583199 -1.79349788 4.29294705 0 0 Z " fill="#4BB6B0" transform="translate(365,244)"/>
<path d="M0 0 C3 1 3 1 5 4 C5 5.32 5 6.64 5 8 C5.66 8.33 6.32 8.66 7 9 C6.67 9.66 6.34 10.32 6 11 C7.32 11.33 8.64 11.66 10 12 C10.33 13.65 10.66 15.3 11 17 C11.66 17 12.32 17 13 17 C13.33 19.31 13.66 21.62 14 24 C13.34 24 12.68 24 12 24 C11.16180842 22.37750059 10.3295884 20.75191503 9.5 19.125 C9.0359375 18.22007812 8.571875 17.31515625 8.09375 16.3828125 C7 14 7 14 7 12 C6.34 12 5.68 12 5 12 C3.35 8.04 1.7 4.08 0 0 Z " fill="#C9E8E8" transform="translate(229,392)"/>
<path d="M0 0 C0.33 0.66 0.66 1.32 1 2 C0.0625 4.125 0.0625 4.125 -1 6 C-1.66 6 -2.32 6 -3 6 C-3.309375 6.94875 -3.61875 7.8975 -3.9375 8.875 C-5 12 -5 12 -6 14 C-6.66 14 -7.32 14 -8 14 C-8.19335938 14.63808594 -8.38671875 15.27617187 -8.5859375 15.93359375 C-8.84632813 16.75988281 -9.10671875 17.58617187 -9.375 18.4375 C-9.75785156 19.67306641 -9.75785156 19.67306641 -10.1484375 20.93359375 C-11 23 -11 23 -13 24 C-12.74652808 17.58716046 -12.37796749 12.89302249 -8 8 C-7.01 8 -6.02 8 -5 8 C-5 7.01 -5 6.02 -5 5 C-4.01 4.67 -3.02 4.34 -2 4 C-0.79117904 1.99983534 -0.79117904 1.99983534 0 0 Z " fill="#63BEB4" transform="translate(308,168)"/>
<path d="M0 0 C0.66 0.99 1.32 1.98 2 3 C1.01 3.33 0.02 3.66 -1 4 C-1.144375 4.763125 -1.28875 5.52625 -1.4375 6.3125 C-2 9 -2 9 -3 12 C-3.66 12 -4.32 12 -5 12 C-5.268125 13.0725 -5.53625 14.145 -5.8125 15.25 C-6.86117431 18.56160307 -7.62752161 20.52866834 -10 23 C-10.66 23 -11.32 23 -12 23 C-10.66590983 18.5150436 -8.86281314 14.80743125 -6.4375 10.8125 C-3.86936682 6.56826372 -3.86936682 6.56826372 -2 2 C-1.34 2 -0.68 2 0 2 C0 1.34 0 0.68 0 0 Z " fill="#57B2A9" transform="translate(282,391)"/>
<path d="M0 0 C1.98 0.495 1.98 0.495 4 1 C4 1.99 4 2.98 4 4 C4.66 4.33 5.32 4.66 6 5 C4.02 8.63 2.04 12.26 0 16 C-2.29771645 11.40456709 -1.24581251 4.82752346 0 0 Z " fill="#E8F6F5" transform="translate(337,280)"/>
<path d="M0 0 C0.99 0.33 1.98 0.66 3 1 C2.34 2.98 1.68 4.96 1 7 C0.34 7 -0.32 7 -1 7 C-1.28875 7.969375 -1.5775 8.93875 -1.875 9.9375 C-3 13 -3 13 -5 14 C-5.46733615 9.42010577 -5.17261016 6.75145487 -2.5 3.0625 C-1.675 2.051875 -0.85 1.04125 0 0 Z " fill="#F0F7F6" transform="translate(374,223)"/>
<path d="M0 0 C1.36124019 3.0937277 0.91936253 4.22578492 -0.25 7.5 C-1.66022862 10.32045724 -2.87385054 12.68896798 -5 15 C-5.66 15 -6.32 15 -7 15 C-7.33 16.65 -7.66 18.3 -8 20 C-8.66 20 -9.32 20 -10 20 C-8.65453774 14.88724343 -6.20550462 10.80983492 -3.4375 6.3671875 C-2.17257822 4.28419131 -1.05249736 2.19607622 0 0 Z " fill="#CAEFED" transform="translate(323,142)"/>
<path d="M0 0 C1.33332095 2.6666419 0.67102033 4.16680303 0 7 C-0.99 7 -1.98 7 -3 7 C-2.87625 8.1446875 -2.87625 8.1446875 -2.75 9.3125 C-3 12 -3 12 -4.8125 13.875 C-5.534375 14.24625 -6.25625 14.6175 -7 15 C-7.99 14.67 -8.98 14.34 -10 14 C-10.33 12.35 -10.66 10.7 -11 9 C-10.01 9.495 -10.01 9.495 -9 10 C-9 10.99 -9 11.98 -9 13 C-8.34 13 -7.68 13 -7 13 C-6.773125 12.34 -6.54625 11.68 -6.3125 11 C-4.59428642 7.07265467 -2.33225393 3.58739822 0 0 Z " fill="#6FC0B8" transform="translate(333,301)"/>
<path d="M0 0 C1.98 0.99 1.98 0.99 4 2 C4 3.32 4 4.64 4 6 C4.99 6.33 5.98 6.66 7 7 C8.80266269 10.41557141 9.218934 13.16865501 9 17 C6.42796282 13.81005599 4.62304676 10.48276886 2.8125 6.8125 C2.28269531 5.74644531 1.75289063 4.68039062 1.20703125 3.58203125 C0 1 0 1 0 0 Z " fill="#65B9B0" transform="translate(294,329)"/>
<path d="M0 0 C1.32 0 2.64 0 4 0 C2.6744419 3.62276315 1.05653045 6.63505348 -1.125 9.8125 C-1.66382813 10.60269531 -2.20265625 11.39289063 -2.7578125 12.20703125 C-3.37269531 13.09455078 -3.37269531 13.09455078 -4 14 C-5.08784335 10.68604014 -5.07262544 10.16419665 -3.5625 6.75 C-3.046875 5.8425 -2.53125 4.935 -2 4 C-1.34 4 -0.68 4 0 4 C0 2.68 0 1.36 0 0 Z " fill="#DAF3F2" transform="translate(332,296)"/>
<path d="M0 0 C1 3 1 3 -0.4375 6.1875 C-1.2109375 7.5796875 -1.2109375 7.5796875 -2 9 C-2.66 9 -3.32 9 -4 9 C-4.18175781 9.63808594 -4.36351562 10.27617187 -4.55078125 10.93359375 C-4.80214844 11.75988281 -5.05351562 12.58617187 -5.3125 13.4375 C-5.55613281 14.26121094 -5.79976563 15.08492188 -6.05078125 15.93359375 C-6.36402344 16.61550781 -6.67726563 17.29742187 -7 18 C-7.99 18.33 -8.98 18.66 -10 19 C-8.68938409 14.76570244 -7.05643741 10.92592596 -5 7 C-4.34 7 -3.68 7 -3 7 C-2.690625 6.030625 -2.38125 5.06125 -2.0625 4.0625 C-1 1 -1 1 0 0 Z " fill="#61B6AF" transform="translate(302,355)"/>
<path d="M0 0 C1.43729098 4.56183658 0.79001918 8.6024048 -1 13 C-3.625 14.5625 -3.625 14.5625 -6 15 C-6.33 14.34 -6.66 13.68 -7 13 C-6.67 12.34 -6.34 11.68 -6 11 C-5.34 11 -4.68 11 -4 11 C-3.79503906 10.37351563 -3.59007812 9.74703125 -3.37890625 9.1015625 C-3.10949219 8.28429687 -2.84007812 7.46703125 -2.5625 6.625 C-2.29566406 5.81289062 -2.02882813 5.00078125 -1.75390625 4.1640625 C-1 2 -1 2 0 0 Z " fill="#61B9B4" transform="translate(389,201)"/>
<path d="M0 0 C0.99 0.33 1.98 0.66 3 1 C3.3721042 2.32303717 3.70630173 3.65737935 4 5 C4.66 5.33 5.32 5.66 6 6 C6.625 8.5625 6.625 8.5625 7 11 C6.01 10.67 5.02 10.34 4 10 C3.3125 7.9375 3.3125 7.9375 3 6 C2.34 6 1.68 6 1 6 C1 6.66 1 7.32 1 8 C0.34 8 -0.32 8 -1 8 C-0.67 5.36 -0.34 2.72 0 0 Z " fill="#57B6AD" transform="translate(85,135)"/>
<path d="M0 0 C2.65845673 2.37000248 4.11161791 4.81984154 5.6875 8 C6.12449219 8.86625 6.56148438 9.7325 7.01171875 10.625 C8 13 8 13 8 16 C5.21611025 14.29374499 4.14615794 13.52373261 3.25 10.3125 C3.1675 9.549375 3.085 8.78625 3 8 C1.68 7.67 0.36 7.34 -1 7 C-0.67 4.69 -0.34 2.38 0 0 Z " fill="#64BDB3" transform="translate(113,184)"/>
<path d="M0 0 C2.375 1.0625 2.375 1.0625 5 3 C6.3125 6.6875 6.3125 6.6875 7 10 C6.01 9.67 5.02 9.34 4 9 C3.66666667 7.66666667 3.33333333 6.33333333 3 5 C2.01 4.67 1.02 4.34 0 4 C0 2.68 0 1.36 0 0 Z M-2 7 C-0.35 7 1.3 7 3 7 C2.67 7.66 2.34 8.32 2 9 C0.68 9 -0.64 9 -2 9 C-2 8.34 -2 7.68 -2 7 Z " fill="#D8F2F2" transform="translate(184,133)"/>
<path d="M0 0 C1.61815467 3.23630934 0.97077399 6.58055728 0 10 C-2.0625 11.5 -2.0625 11.5 -4 12 C-4 12.66 -4 13.32 -4 14 C-4.66 14 -5.32 14 -6 14 C-4.45941767 8.98491285 -2.97068161 4.3852919 0 0 Z " fill="#5FB7AD" transform="translate(263,424)"/>
<path d="M0 0 C1.890625 0.26171875 1.890625 0.26171875 4 1 C5.046875 2.70703125 5.046875 2.70703125 5.75 4.8125 C5.99234375 5.49957031 6.2346875 6.18664062 6.484375 6.89453125 C7 9 7 9 7 13 C7.66 13 8.32 13 9 13 C8.67 13.99 8.34 14.98 8 16 C8 15.34 8 14.68 8 14 C7.34 14 6.68 14 6 14 C5.89042969 13.43410156 5.78085938 12.86820312 5.66796875 12.28515625 C5.50941406 11.55167969 5.35085937 10.81820313 5.1875 10.0625 C5.03667969 9.33160156 4.88585937 8.60070312 4.73046875 7.84765625 C4.48941406 7.23792969 4.24835938 6.62820313 4 6 C3.01 5.67 2.02 5.34 1 5 C0.67 3.35 0.34 1.7 0 0 Z " fill="#CEF2EF" transform="translate(177,298)"/>
<path d="M0 0 C1.32 0.33 2.64 0.66 4 1 C3.57405412 2.44096586 3.13373367 3.87768712 2.6875 5.3125 C2.44386719 6.11300781 2.20023437 6.91351563 1.94921875 7.73828125 C0.95817977 10.09964573 -0.08074943 11.33879993 -2 13 C-1.125 6.125 -1.125 6.125 0 5 C-0.33 4.01 -0.66 3.02 -1 2 C-0.67 1.34 -0.34 0.68 0 0 Z " fill="#DBEFEF" transform="translate(361,243)"/>
<path d="M0 0 C4.5 4.5 4.5 4.5 5 9 C4.34 9 3.68 9 3 9 C2.67 9.99 2.34 10.98 2 12 C1.01 12.495 1.01 12.495 0 13 C0 8.71 0 4.42 0 0 Z " fill="#5ABEB3" transform="translate(136,226)"/>
<path d="M0 0 C1.125 1.75 1.125 1.75 2 4 C1.5359375 4.8971875 1.5359375 4.8971875 1.0625 5.8125 C-0.50232612 9.03420083 0.34054335 11.57082542 1 15 C-1.0625 13.4375 -1.0625 13.4375 -3 11 C-2.85222025 6.8621671 -2.13517533 3.55862555 0 0 Z " fill="#BEDCDB" transform="translate(279,220)"/>
<path d="M0 0 C3.09592835 3.5087188 4.74194623 6.49197399 6 11 C4.68 11 3.36 11 2 11 C-0.67927341 6.98108988 -0.15601248 4.75838077 0 0 Z " fill="#59BBB0" transform="translate(210,359)"/>
<path d="M0 0 C0.67578125 1.671875 0.67578125 1.671875 1 4 C-0.14453125 6.578125 -0.14453125 6.578125 -1.8125 9.25 C-2.35519531 10.14203125 -2.89789063 11.0340625 -3.45703125 11.953125 C-3.96621094 12.62859375 -4.47539062 13.3040625 -5 14 C-5.66 14 -6.32 14 -7 14 C-5.53967505 8.68972746 -3.01679014 4.53669968 0 0 Z " fill="#70BFB8" transform="translate(353,266)"/>
<path d="M0 0 C0 3.50644339 -1.21136744 5.27206138 -2.984375 8.21875 C-4.13033318 10.12874711 -4.13033318 10.12874711 -5.125 12.875 C-6 15 -6 15 -8 16 C-4.79166667 4.3125 -4.79166667 4.3125 0 0 Z " fill="#66B9B2" transform="translate(318,150)"/>
<path d="M0 0 C0.66 0.33 1.32 0.66 2 1 C-0.89066059 10.59453303 -0.89066059 10.59453303 -4 14 C-4.33 12.68 -4.66 11.36 -5 10 C-4.01 9.67 -3.02 9.34 -2 9 C-2.04125 7.88625 -2.0825 6.7725 -2.125 5.625 C-2 2 -2 2 0 0 Z " fill="#D0E8E9" transform="translate(260,424)"/>
<path d="M0 0 C0.66 0.66 1.32 1.32 2 2 C1.01 3.98 0.02 5.96 -1 8 C-1.66 8 -2.32 8 -3 8 C-3.12375 8.61875 -3.2475 9.2375 -3.375 9.875 C-4 12 -4 12 -6 14 C-6.2295711 10.63295715 -6.33943529 8.58629732 -4.625 5.625 C-4.08875 5.08875 -3.5525 4.5525 -3 4 C-2.34 4 -1.68 4 -1 4 C-0.67 2.68 -0.34 1.36 0 0 Z " fill="#D5ECED" transform="translate(300,354)"/>
<path d="M0 0 C3 1 3 1 4 3 C4.99 3 5.98 3 7 3 C8.16552619 7.19589427 8.08954032 7.82091936 6 12 C4.02 8.04 2.04 4.08 0 0 Z " fill="#DBF2F2" transform="translate(206,351)"/>
<path d="M0 0 C2 2 2 2 2 6 C3.32 6.33 4.64 6.66 6 7 C6.66 10.3 7.32 13.6 8 17 C6 16 6 16 5.1484375 13.93359375 C4.76558594 12.69802734 4.76558594 12.69802734 4.375 11.4375 C4.11460937 10.61121094 3.85421875 9.78492188 3.5859375 8.93359375 C3.39257812 8.29550781 3.19921875 7.65742188 3 7 C2.34 7 1.68 7 1 7 C0.67 4.69 0.34 2.38 0 0 Z " fill="#C8EDEC" transform="translate(153,253)"/>
<path d="M0 0 C0.33 0 0.66 0 1 0 C1.25 3.3125 1.25 3.3125 1 7 C-0.875 8.9375 -0.875 8.9375 -3 10 C-3.66 10 -4.32 10 -5 10 C-3.66654496 6.40992874 -2.1056769 3.20429093 0 0 Z " fill="#65BCB3" transform="translate(345,280)"/>
<path d="M0 0 C1 2 1 2 0.546875 4.05859375 C0.28390625 4.84363281 0.0209375 5.62867188 -0.25 6.4375 C-0.62898438 7.61119141 -0.62898438 7.61119141 -1.015625 8.80859375 C-2.05459263 11.1215336 -3.0289534 12.42011471 -5 14 C-5.66 14 -6.32 14 -7 14 C-5.92598892 11.08482708 -5.22189824 9.22189824 -3 7 C-1.96157435 4.68351201 -0.9578025 2.35096976 0 0 Z " fill="#62B6B1" transform="translate(406,172)"/>
<path d="M0 0 C0.99 0.495 0.99 0.495 2 1 C2 2.32 2 3.64 2 5 C2.66 5 3.32 5 4 5 C4.33 7.31 4.66 9.62 5 12 C4.34 12 3.68 12 3 12 C0.58314288 7.77050005 -0.34833144 4.87664009 0 0 Z " fill="#D5EEEB" transform="translate(238,404)"/>
<path d="M0 0 C4.44955192 2.22477596 6.11782206 9.51862396 8 14 C6.125 13.875 6.125 13.875 4 13 C2.875 10.375 2.875 10.375 2 7 C1.62776937 5.70753254 1.25280911 4.4158478 0.875 3.125 C0.58625 2.09375 0.2975 1.0625 0 0 Z " fill="#6FC0B7" transform="translate(216,370)"/>
<path d="M0 0 C1.32 0 2.64 0 4 0 C5.49821059 3.37097383 6 5.20442119 6 9 C5.34 9 4.68 9 4 9 C0 2.25 0 2.25 0 0 Z " fill="#ADD5CF" transform="translate(310,289)"/>
<path d="M0 0 C3.09592835 3.5087188 4.74194623 6.49197399 6 11 C5.34 10.67 4.68 10.34 4 10 C4 9.34 4 8.68 4 8 C3.01 8 2.02 8 1 8 C-0.35439668 5.29120665 -0.06501451 2.99066732 0 0 Z " fill="#BEE7E6" transform="translate(258,264)"/>
<path d="M0 0 C2.97069541 2.54631035 4.4775751 5.42230149 6 9 C5.67 9.66 5.34 10.32 5 11 C4.34 10.67 3.68 10.34 3 10 C3 9.01 3 8.02 3 7 C2.01 6.67 1.02 6.34 0 6 C0 4.02 0 2.04 0 0 Z " fill="#C7ECEA" transform="translate(224,203)"/>
<path d="M0 0 C1.32 0.33 2.64 0.66 4 1 C2.35 4.3 0.7 7.6 -1 11 C-1.33 11 -1.66 11 -2 11 C-2.19622241 6.78121808 -1.80230168 3.82989106 0 0 Z " fill="#D9F6F6" transform="translate(396,183)"/>
<path d="M0 0 C2.9375 0.375 2.9375 0.375 4.9375 2.375 C2.6275 2.045 0.3175 1.715 -2.0625 1.375 C-2.0625 2.365 -2.0625 3.355 -2.0625 4.375 C-2.7225 4.375 -3.3825 4.375 -4.0625 4.375 C-4.165625 5.014375 -4.26875 5.65375 -4.375 6.3125 C-4.601875 6.993125 -4.82875 7.67375 -5.0625 8.375 C-6.0525 8.705 -7.0425 9.035 -8.0625 9.375 C-4.89346085 0.59919929 -4.89346085 0.59919929 0 0 Z " fill="#D5F5F3" transform="translate(332.0625,132.625)"/>
<path d="M0 0 C-1.66666667 3.33333333 -3.33333333 6.66666667 -5 10 C-5.33 10 -5.66 10 -6 10 C-6.75 7.25 -6.75 7.25 -7 4 C-4.71313837 0.89640208 -3.9170696 0 0 0 Z " fill="#D8F2F0" transform="translate(290,376)"/>
<path d="M0 0 C0.33 0.66 0.66 1.32 1 2 C0.67 2.99 0.34 3.98 0 5 C-0.66 5 -1.32 5 -2 5 C-2 6.65 -2 8.3 -2 10 C-3.32 10.33 -4.64 10.66 -6 11 C-4.34703566 6.90694544 -2.86453858 3.41016497 0 0 Z " fill="#70BFB9" transform="translate(418,151)"/>
<path d="M0 0 C0.66 0 1.32 0 2 0 C2.69710731 1.28650706 3.38242876 2.57940665 4.0625 3.875 C4.63677734 4.95394531 4.63677734 4.95394531 5.22265625 6.0546875 C5.47917969 6.69664062 5.73570313 7.33859375 6 8 C5.67 8.66 5.34 9.32 5 10 C4.34 10 3.68 10 3 10 C2.87625 9.360625 2.7525 8.72125 2.625 8.0625 C2.315625 7.0415625 2.315625 7.0415625 2 6 C1.34 5.67 0.68 5.34 0 5 C0 3.35 0 1.7 0 0 Z " fill="#6BC0B6" transform="translate(97,156)"/>
<path d="M0 0 C1.32 0.33 2.64 0.66 4 1 C5.08203125 2.9609375 5.08203125 2.9609375 5.8125 5.375 C6.06644531 6.16648437 6.32039063 6.95796875 6.58203125 7.7734375 C7 10 7 10 6 13 C4.02 8.71 2.04 4.42 0 0 Z " fill="#6CB9B1" transform="translate(251,251)"/>
<path d="M0 0 C0.33 0 0.66 0 1 0 C1.36666667 5.5 1.36666667 5.5 -0.375 7.875 C-2 9 -2 9 -4 9 C-2.25 2.25 -2.25 2.25 0 0 Z " fill="#61BBB1" transform="translate(411,163)"/>
<path d="M0 0 C1.53445094 3.06890187 0.54984289 5.70094266 0 9 C-1.32 9.33 -2.64 9.66 -4 10 C-3.52449439 8.51965236 -3.04448784 7.04074979 -2.5625 5.5625 C-2.29566406 4.73878906 -2.02882813 3.91507813 -1.75390625 3.06640625 C-1 1 -1 1 0 0 Z " fill="#5FBAB0" transform="translate(423,141)"/>
<path d="M0 0 C0.99 0.495 0.99 0.495 2 1 C2 1.99 2 2.98 2 4 C3.32 4.66 4.64 5.32 6 6 C5.67 6.99 5.34 7.98 5 9 C4.01 9 3.02 9 2 9 C1.34 6.03 0.68 3.06 0 0 Z " fill="#49AFA5" transform="translate(303,343)"/>
<path d="M0 0 C1.98 0.99 1.98 0.99 4 2 C4 3.65 4 5.3 4 7 C4.66 7 5.32 7 6 7 C6 8.65 6 10.3 6 12 C3.37613513 8.93882432 3 8.26826873 3 4 C2.34 4 1.68 4 1 4 C0.67 2.68 0.34 1.36 0 0 Z " fill="#BAE7E2" transform="translate(188,318)"/>
<path d="M0 0 C2.29013653 3.4352048 2.17842973 4.985331 2 9 C-1 7 -1 7 -1.6875 3.875 C-1.790625 2.92625 -1.89375 1.9775 -2 1 C-1.34 0.67 -0.68 0.34 0 0 Z " fill="#DEF8F4" transform="translate(162,265)"/>
<path d="M0 0 C1.32 0.99 2.64 1.98 4 3 C3.67 3.66 3.34 4.32 3 5 C0.4375 5.625 0.4375 5.625 -2 6 C-2.33 4.68 -2.66 3.36 -3 2 C-2.01 1.34 -1.02 0.68 0 0 Z " fill="#E7F8F5" transform="translate(229,214)"/>
<path d="M0 0 C2.91227269 3.28804981 4.49701212 5.59885603 5 10 C3.0625 9.5 3.0625 9.5 1 8 C0.31209578 5.30341548 0.18053536 2.7982981 0 0 Z " fill="#76C3B9" transform="translate(242,416)"/>
<path d="M0 0 C1.32 1.65 2.64 3.3 4 5 C3.67 5.66 3.34 6.32 3 7 C2.34 6.67 1.68 6.34 1 6 C0.67 7.32 0.34 8.64 0 10 C-1.2380014 6.42355152 -0.74926071 3.66305234 0 0 Z " fill="#4FB2AA" transform="translate(285,246)"/>
<path d="M0 0 C3 1 3 1 4.75 3.8125 C6.05483179 7.13982105 6.02866653 7.79584277 5 11 C4.35165346 9.730447 3.70642185 8.45930294 3.0625 7.1875 C2.70285156 6.47980469 2.34320313 5.77210938 1.97265625 5.04296875 C1 3 1 3 0 0 Z " fill="#E4FAF7" transform="translate(136,224)"/>
<path d="M0 0 C0.33 0.66 0.66 1.32 1 2 C1.66 2 2.32 2 3 2 C4.06775224 3.96466413 5.06553465 5.96855359 6 8 C5.67 8.66 5.34 9.32 5 10 C4.34 9.67 3.68 9.34 3 9 C3 7.68 3 6.36 3 5 C2.01 4.67 1.02 4.34 0 4 C0 2.68 0 1.36 0 0 Z " fill="#61B6AD" transform="translate(233,402)"/>
<path d="M0 0 C0.99 0.33 1.98 0.66 3 1 C2.34 2.98 1.68 4.96 1 7 C0.34 7 -0.32 7 -1 7 C-1.33 7.66 -1.66 8.32 -2 9 C-2 7.68 -2 6.36 -2 5 C-1.34 5 -0.68 5 0 5 C0 3.35 0 1.7 0 0 Z " fill="#CBEDE9" transform="translate(374,223)"/>
<path d="M0 0 C1.4783226 2.95664519 1.06032783 5.74229737 1 9 C-0.32 9.33 -1.64 9.66 -3 10 C-2.69201674 8.51988629 -2.378482 7.04092675 -2.0625 5.5625 C-1.88847656 4.73878906 -1.71445312 3.91507813 -1.53515625 3.06640625 C-1 1 -1 1 0 0 Z " fill="#D9E9ED" transform="translate(294,194)"/>
<path d="M0 0 C0.99 0.33 1.98 0.66 3 1 C3 2.32 3 3.64 3 5 C3.66 5.33 4.32 5.66 5 6 C4.01 7.485 4.01 7.485 3 9 C0 3.375 0 3.375 0 0 Z " fill="#D3F3F3" transform="translate(116,187)"/>
<path d="M0 0 C0.66 0 1.32 0 2 0 C0.90931332 3.77545388 0.0916909 6.47043472 -3 9 C-3 7.35 -3 5.7 -3 4 C-2.34 4 -1.68 4 -1 4 C-0.67 2.68 -0.34 1.36 0 0 Z " fill="#DAF9F9" transform="translate(413,155)"/>
<path d="M0 0 C1.65 0 3.3 0 5 0 C5.33 0.66 5.66 1.32 6 2 C5.01 2.495 5.01 2.495 4 3 C3.34786708 5.02463255 3.34786708 5.02463255 3 7 C2.01 4.69 1.02 2.38 0 0 Z " fill="#DBEEF1" transform="translate(202,343)"/>
<path d="M0 0 C0.66 1.32 1.32 2.64 2 4 C0.68 4.33 -0.64 4.66 -2 5 C-2 5.99 -2 6.98 -2 8 C-2.66 8 -3.32 8 -4 8 C-2.87548273 5.0280615 -1.77706209 2.66559313 0 0 Z " fill="#66BBB3" transform="translate(359,256)"/>
<path d="M0 0 C2.32472205 2.85306797 3.7508258 5.54074837 5 9 C3.68 8.67 2.36 8.34 1 8 C0.67 5.36 0.34 2.72 0 0 Z " fill="#D3F1F1" transform="translate(251,252)"/>
<path d="M0 0 C1.55913346 3.11826692 0.66585225 5.67073874 0 9 C-0.99 9.495 -0.99 9.495 -2 10 C-2.6875 6.6875 -2.6875 6.6875 -3 3 C-1.5625 1.0625 -1.5625 1.0625 0 0 Z " fill="#5EB3A9" transform="translate(277,222)"/>
<path d="M0 0 C1.32 0.33 2.64 0.66 4 1 C4.33 2.98 4.66 4.96 5 7 C4.67 6.34 4.34 5.68 4 5 C3.01 4.67 2.02 4.34 1 4 C0.3125 1.9375 0.3125 1.9375 0 0 Z " fill="#E2EEF1" transform="translate(246,422)"/>
<path d="M0 0 C0.99 0 1.98 0 3 0 C2.34 1.98 1.68 3.96 1 6 C0.34 6 -0.32 6 -1 6 C-1.33 6.99 -1.66 7.98 -2 9 C-2 7.68 -2 6.36 -2 5 C-1.34 5 -0.68 5 0 5 C0 3.35 0 1.7 0 0 Z " fill="#BEE4E4" transform="translate(281,387)"/>
<path d="M0 0 C2.62386487 3.06117568 3 3.73173127 3 8 C2.34 8 1.68 8 1 8 C0.67 5.36 0.34 2.72 0 0 Z M2 1 C2.66 1 3.32 1 4 1 C3.67 1.99 3.34 2.98 3 4 C2.67 3.01 2.34 2.02 2 1 Z " fill="#ECF2F0" transform="translate(228,384)"/>
<path d="M0 0 C0.99 0 1.98 0 3 0 C2.39816251 2.02045442 1.72693904 4.02111039 1 6 C0.01 6.495 0.01 6.495 -1 7 C-1.04254356 5.00045254 -1.04080783 2.99958364 -1 1 C-0.67 0.67 -0.34 0.34 0 0 Z " fill="#E1F7F6" transform="translate(349,267)"/>
<path d="M0 0 C2.50037734 2.17424117 3.43628586 3.73045798 4 7 C2.68 6.67 1.36 6.34 0 6 C0 4.02 0 2.04 0 0 Z " fill="#6EC3B7" transform="translate(129,213)"/>
<path d="M0 0 C0.99 0.33 1.98 0.66 3 1 C1.84826645 3.46800047 0.95216435 5.04783565 -1 7 C-1.04254356 5.00045254 -1.04080783 2.99958364 -1 1 C-0.67 0.67 -0.34 0.34 0 0 Z " fill="#5CBAAD" transform="translate(326,132)"/>
</svg>
